<svg xmlns="http://www.w3.org/2000/svg" width="347" height="210" style="shape-rendering:geometricPrecision;text-rendering:geometricPrecision;image-rendering:optimizeQuality;fill-rule:evenodd;clip-rule:evenodd"><path style="opacity:.812" fill="#fee71f" d="M118.5 35.5h49v24h-29v44h-26v-44c-9.339-.166-18.673 0-28 .5L96 75.5c3.864 11.77.364 20.603-10.5 26.5a885.398 885.398 0 0 1-71 1.5v-26c16.67.167 33.337 0 50-.5L55 65.5c-4.42-11.404-1.587-20.571 8.5-27.5a1750.2 1750.2 0 0 1 55-2.5Zm-50 6h94v13h-29v43h-16v-43c-12.58-.322-25.08.011-37.5 1-1.301 1.865-1.635 3.865-1 6l12 16c3.207 8.714.707 15.214-7.5 19.5-21.664.5-43.33.667-65 .5v-14c16.67.167 33.337 0 50-.5 2.125-1.737 2.958-3.904 2.5-6.5l-10-12c-5.387-10.093-2.887-17.76 7.5-23Z"/><path style="opacity:.813" fill="#fee71e" d="M178.5 36.5a302.658 302.658 0 0 1 34.5 1 7730.703 7730.703 0 0 1 22.5 66 169.926 169.926 0 0 1-26-1 21.026 21.026 0 0 1-2-7c-7.587.314-15.087-.02-22.5-1a56.489 56.489 0 0 1-3.5 8.5 113.23 113.23 0 0 1-26-.5c7.676-22.028 15.342-44.028 23-66Zm4 5h27a1383.147 1383.147 0 0 0 19 56c-5 1.333-10 1.333-15 0a101.29 101.29 0 0 0-3-7.5c-9.994-.5-19.994-.666-30-.5a21.029 21.029 0 0 1-2 7 57.124 57.124 0 0 1-15 1 1381.333 1381.333 0 0 1 19-56Zm13 22c1.558 2.792 2.891 5.792 4 9-2.333 1.333-4.667 1.333-7 0a71.365 71.365 0 0 0 3-9Z"/><path style="opacity:.799" fill="#fee71f" d="M240.5 36.5a513.956 513.956 0 0 1 54 1.5c13.598 7.554 17.098 18.387 10.5 32.5l-6.5 6.5c11.001.548 22.001 1.048 33 1.5.112 8.344.445 16.677 1 25-14.67.167-29.337 0-44-.5-2.677-.249-5.01-1.249-7-3A119.132 119.132 0 0 1 268 87.5a128.508 128.508 0 0 0-.5 16h-27v-67Zm5 5c15.367-.337 30.7.163 46 1.5 11.627 5.547 14.46 14.047 8.5 25.5a46.431 46.431 0 0 1-9.5 6.5c-.951.718-1.117 1.55-.5 2.5l5.5 5.5c10.328.5 20.661.666 31 .5a82.733 82.733 0 0 0 1 14c-13.337.167-26.671 0-40-.5A372.643 372.643 0 0 1 263 75.5a242.43 242.43 0 0 0-.5 22h-17v-56Zm22 16c4.679-.166 9.345 0 14 .5 1.333 1.333 1.333 2.667 0 4-4.655.5-9.321.666-14 .5v-5Z"/><path style="opacity:.81" fill="#fee71e" d="M195.5 48.5c.617.11 1.117.444 1.5 1 3.068 9.37 6.235 18.704 9.5 28a111.123 111.123 0 0 1-21 1 790.727 790.727 0 0 1 10-30Zm0 15a71.365 71.365 0 0 1-3 9c2.333 1.333 4.667 1.333 7 0-1.109-3.208-2.442-6.208-4-9Z"/><path style="opacity:.83" fill="#ffe71f" d="M262.5 52.5c7.008-.166 14.008 0 21 .5 3.183 1.018 4.516 3.185 4 6.5.242 3.014-.758 5.514-3 7.5-7.326.5-14.659.666-22 .5v-15Zm5 5v5c4.679.166 9.345 0 14-.5 1.333-1.333 1.333-2.667 0-4a98.432 98.432 0 0 0-14-.5Z"/><path style="opacity:.832" fill="#fee71f" d="M15.5 105.5a313 313 0 0 1 25 .5 384.748 384.748 0 0 1 6 14.5 384.748 384.748 0 0 1 6-14.5 104.719 104.719 0 0 1 25 .5 403.583 403.583 0 0 0 5.5 15 134.447 134.447 0 0 1 5.5-15 169.927 169.927 0 0 1 26-1 2631.03 2631.03 0 0 1-22.5 66 45.636 45.636 0 0 1-19 0l-8-24a346.114 346.114 0 0 0-9.5 24 54.558 54.558 0 0 1-18 .5 862.245 862.245 0 0 1-22-66.5Zm7 5h15a173.092 173.092 0 0 0 9.5 26 403.754 403.754 0 0 0 8.5-26 81.884 81.884 0 0 1 18 1 224.682 224.682 0 0 0 9.5 25 157.785 157.785 0 0 0 8.5-25c5.344-.166 10.677.001 16 .5a1088.342 1088.342 0 0 0-19 55.5c-3.937.293-7.77-.04-11.5-1a1081.992 1081.992 0 0 1-12-35 550.141 550.141 0 0 0-13 35c-3.408 1.122-6.908 1.289-10.5.5a802.918 802.918 0 0 1-19-56.5Z"/><path style="opacity:.817" fill="#fee71f" d="M125.5 105.5a302.635 302.635 0 0 1 34.5 1 7451.747 7451.747 0 0 0 22.5 65 113.23 113.23 0 0 1-26 .5 75.552 75.552 0 0 0-3-8c-7.659-.5-15.326-.666-23-.5a18.074 18.074 0 0 1-2 8 85.021 85.021 0 0 1-26 0c7.676-22.028 15.342-44.028 23-66Zm3 5c9.251-.318 18.417.015 27.5 1a2725.211 2725.211 0 0 0 19.5 55.5c-5 .667-10 .667-15 0a101.185 101.185 0 0 1-3-7.5 150.545 150.545 0 0 0-30-.5l-3 7a98.432 98.432 0 0 1-14 .5 2737.152 2737.152 0 0 0 18-56Zm14 23c1.17 2.15 2.17 4.484 3 7-2 1.333-4 1.333-6 0a46.877 46.877 0 0 0 3-7Z"/><path style="opacity:.836" fill="#fee71f" d="M284.5 105.5h47v24c-10.006-.166-20.006 0-30 .5a119.908 119.908 0 0 1 11.5 14.5c3.97 11.424.804 20.257-9.5 26.5a627.243 627.243 0 0 1-70 1 180.773 180.773 0 0 1-17.5-14.5 418.778 418.778 0 0 1-1.5 15h-26a1187.236 1187.236 0 0 1-1-66c18.069-.46 36.069.04 54 1.5 11.981 6.125 16.148 15.625 12.5 28.5-1.738 3.741-4.238 6.908-7.5 9.5 8.338.426 16.671.926 25 1.5a32.614 32.614 0 0 0 10-1.5c-8.938-6.701-12.771-15.535-11.5-26.5 2.416-7.271 7.249-11.937 14.5-14Zm3 5h39v14a225.771 225.771 0 0 0-30 1c-1.02 1.932-1.187 3.932-.5 6l13 17c1.736 7.691-.764 13.524-7.5 17.5a551.815 551.815 0 0 1-65 1 195.066 195.066 0 0 1-25.5-21.5 242.43 242.43 0 0 0-.5 22h-18v-56c14.67-.167 29.337 0 44 .5 12.182 4.521 16.016 12.687 11.5 24.5-2.756 3.427-6.09 6.093-10 8 .149 3.516 1.983 6.016 5.5 7.5 14 .667 28 .667 42 0 2.818-2.103 3.318-4.603 1.5-7.5l-10-12c-4.801-11.351-1.301-18.684 10.5-22Zm-73 16c5.004.389 10.004.889 15 1.5 1.333 1 1.333 2 0 3a112.97 112.97 0 0 1-15 .5v-5Z"/><path style="opacity:.831" fill="#fee71e" d="M142.5 117.5c4.306 9.586 7.64 19.586 10 30-7.032.33-14.032-.003-21-1a768.095 768.095 0 0 0 11-29Zm0 16a46.877 46.877 0 0 1-3 7c2 1.333 4 1.333 6 0-.83-2.516-1.83-4.85-3-7Z"/><path style="opacity:.798" fill="#fee71e" d="M210.5 121.5c6.675-.166 13.342 0 20 .5 5.274 3.298 6.274 7.631 3 13-6.785 2.446-13.785 3.113-21 2-1.914-4.858-2.581-10.025-2-15.5Zm4 5v5a112.97 112.97 0 0 0 15-.5c1.333-1 1.333-2 0-3a341.728 341.728 0 0 0-15-1.5Z"/></svg>